<?xml version="1.0" encoding="iso-8859-1"?>
<!-- Generator: Adobe Illustrator 18.1.1, SVG Export Plug-In . SVG Version: 6.00 Build 0)  -->
<svg xmlns="http://www.w3.org/2000/svg" viewBox="0 0 456.5 456.5">
<g>
	<path d="M228.278,418.684c-3.301,0-6.602-1.21-9.186-3.633L174.3,373.043c-5.41-5.074-5.682-13.572-0.608-18.981
		c5.071-5.413,13.568-5.686,18.981-0.608l35.647,33.434l174.146-161.763c36.368-36.385,36.368-96.14-0.357-132.865
		c-17.785-17.789-41.438-27.587-66.602-27.587c-25.157,0-48.81,9.798-66.602,27.587c-15.512,15.512-25.143,35.997-27.178,57.786
		c-0.028,3.504-1.434,6.882-3.938,9.382c-2.791,2.794-6.679,4.252-10.603,3.885c-6.98-0.584-12.302-6.403-12.358-13.271
		c-2.039-21.782-11.666-42.271-27.178-57.783c-17.792-17.789-41.442-27.587-66.602-27.587S72.236,74.47,54.443,92.259
		c-17.789,17.792-27.587,41.442-27.587,66.602s9.798,48.813,27.587,66.606l93.448,86.793c5.434,5.046,5.749,13.544,0.699,18.974
		c-5.05,5.441-13.54,5.749-18.974,0.699l-93.804-87.136C12.592,221.592,0,191.193,0,158.861s12.592-62.731,35.455-85.59
		c22.863-22.863,53.261-35.455,85.594-35.455s62.731,12.592,85.59,35.455c8.721,8.721,15.995,18.663,21.639,29.437
		c5.644-10.774,12.918-20.719,21.632-29.437c22.87-22.866,53.265-35.455,85.597-35.455c32.339,0,62.734,12.592,85.597,35.455
		c47.194,47.194,47.194,123.986,0,171.184L237.419,415.093C234.838,417.489,231.558,418.684,228.278,418.684z"/>
</g>
</svg>
